<svg width="16" height="18" viewBox="0 0 16 18" fill="none" xmlns="http://www.w3.org/2000/svg">
<path d="M9.90833 6.37543L9.62 13.8754M5.63 13.8754L5.34167 6.37543M13.6483 3.70043C13.9333 3.74377 14.2167 3.7896 14.5 3.83877M13.6483 3.70043L12.7583 15.2696C12.722 15.7406 12.5092 16.1806 12.1625 16.5015C11.8158 16.8224 11.3608 17.0006 10.8883 17.0004H4.36167C3.88925 17.0006 3.43419 16.8224 3.08748 16.5015C2.74078 16.1806 2.52799 15.7406 2.49167 15.2696L1.60167 3.70043M13.6483 3.70043C12.6866 3.55503 11.7198 3.44468 10.75 3.3696M1.60167 3.70043C1.31667 3.74293 1.03333 3.78877 0.75 3.83793M1.60167 3.70043C2.56344 3.55503 3.5302 3.44468 4.5 3.3696M10.75 3.3696V2.60627C10.75 1.62293 9.99167 0.802934 9.00833 0.772101C8.08635 0.742633 7.16365 0.742633 6.24167 0.772101C5.25833 0.802934 4.5 1.62377 4.5 2.60627V3.3696M10.75 3.3696C8.66977 3.20883 6.58023 3.20883 4.5 3.3696" stroke="#6A717F" stroke-width="1.5" stroke-linecap="round" stroke-linejoin="round"/>
</svg>
