<svg width="19" height="19" viewBox="0 0 19 19" fill="none" xmlns="http://www.w3.org/2000/svg">
<path d="M8.45824 2.25975H3.62472C2.02303 2.25975 0.724609 3.55817 0.724609 5.15986V14.827C0.724609 16.4287 2.02303 17.7271 3.62472 17.7271H13.2918C14.8934 17.7271 16.1919 16.4287 16.1919 14.827L16.1919 9.99342M5.55813 12.8935L9.07531 12.1848C9.26203 12.1472 9.43347 12.0552 9.56811 11.9205L17.4417 4.04266C17.8192 3.66495 17.8189 3.05272 17.4411 2.67533L15.7732 1.00932C15.3955 0.632087 14.7836 0.632344 14.4063 1.00989L6.53189 8.88857C6.39751 9.02303 6.30575 9.19412 6.2681 9.38045L5.55813 12.8935Z" stroke="#6A717F" stroke-width="1.45006" stroke-linecap="round" stroke-linejoin="round"/>
</svg>
