<svg width="22" height="20" viewBox="0 0 22 20" fill="none" xmlns="http://www.w3.org/2000/svg">
<path d="M13.8691 0.301758C13.8835 0.301758 13.953 0.299587 14.0225 0.319336C14.0802 0.335785 14.1379 0.368428 14.1875 0.417969L20.8008 4.33691C20.9912 4.42333 21.0829 4.61543 21.083 4.79883V19.1201C21.0829 19.2622 21.0345 19.4038 20.9277 19.5107C20.8207 19.6178 20.6783 19.667 20.5361 19.667H6.21582C6.14387 19.667 6.07017 19.6541 5.99805 19.6221C5.92724 19.5906 5.87243 19.5472 5.83008 19.5049L5.8252 19.5L0.640625 14.0684L0.641602 14.0674C0.600537 14.0256 0.557641 13.9735 0.527344 13.9053C0.49538 13.8332 0.483398 13.7594 0.483398 13.6875V0.848633C0.483398 0.706335 0.531626 0.564073 0.638672 0.457031C0.745754 0.350002 0.888098 0.301758 1.03027 0.301758H13.8691ZM6.7627 18.5732H19.9893V5.3457H15.4043V8.74902C15.4043 8.89136 15.3552 9.03357 15.248 9.14062C15.141 9.24755 14.9995 9.29685 14.8574 9.29688H11.6475C11.5051 9.29688 11.3629 9.24773 11.2559 9.14062C11.1489 9.03356 11.1006 8.89113 11.1006 8.74902V5.3457H6.7627V18.5732ZM1.57715 13.4688L5.66895 17.7539V5.07129L1.57715 1.94824V13.4688ZM12.1943 8.20215H14.3105V5.3457H12.1943V8.20215ZM15.2686 4.25195H18.5293L13.7139 1.39551H10.9834L15.2686 4.25195ZM11.8115 4.25195H13.2988L9.01367 1.39551H7.52734L11.8115 4.25195ZM6.3916 4.25195H9.8418L5.55762 1.39551H2.65625L6.3916 4.25195Z" fill="#6A717F" stroke="#6A717F" stroke-width="0.6"/>
</svg>
